<svg xmlns="http://www.w3.org/2000/svg" viewBox="0 0 1024 1024"><path fill="#ed2026" d="M277.916 248.75c-.046 1.512-.159 9.05-.25 16.75l-.166 14 13.5.5 13.5.5.265 28.718.266 28.719 11.734.281 11.735.282-.117 199-.117 199-11.614.282-11.615.281-.268 22.719-.269 22.718-12.96.281c-8.83.192-13.208.67-13.735 1.5-.426.671-.781 8.049-.79 16.397L277 815.856l250 .053 250 .053V783.06l-12.75-.28-12.75-.28-.269-22.718-.268-22.719-11.732-.281-11.731-.282v-398l11.735-.282 11.735-.281.265-29.219.265-29.218 12.75-.28 12.75-.28V246H278l-.084 2.75m151.776 31.495c-1.599 1.177-1.689 16.741-1.448 251.755l.256 250.5 19.371.272c13.369.188 19.795-.08 20.741-.865 1.064-.883 1.348-4.736 1.27-17.272-.055-8.874-.03-78.01.055-153.635l.155-137.5 15.878 16.279 15.877 16.28.065 137.658c.035 75.713.437 138.032.894 138.489.456.456 12.049.709 25.762.562l24.932-.268.5-138.594.5-138.593 15.725-16.251 15.725-16.251.022 154.291c.012 84.86.393 154.663.847 155.117.453.453 9.792.702 20.753.553l19.928-.272.116-244c.064-134.2-.161-247.375-.5-251.5l-.616-7.5-97.552-.255c-76.997-.201-97.911.01-99.256 1m-68.001 33.398c-.38.38-.691 100.022-.691 221.427v220.737l-12.134 12.629c-6.674 6.946-11.812 12.951-11.418 13.346.394.395 13.392.718 28.884.718H394.5v-469l-16.059-.274c-8.833-.15-16.371.037-16.75.417m299.822.336c-.774 1.253-.718 466.88.056 468.133.732 1.184 56.147 1.157 56.879-.028.311-.504-4.724-6.63-11.191-13.613L695.5 755.774l-.5-221.137-.5-221.137-16.176-.274c-10.298-.175-16.407.099-16.811.753m-151.362 6.49c-46.884 15.179-52.207 81.55-8.368 104.357 28.91 15.041 60.823 4.785 75.572-24.287 5.003-9.862 5.831-12.935 6.377-23.663 2.015-39.67-35.782-68.645-73.581-56.407" fill-rule="evenodd"/></svg>